<?xml version="1.0" encoding="UTF-8" standalone="no"?>
<svg
   xmlns:dc="http://purl.org/dc/elements/1.1/"
   xmlns:cc="http://creativecommons.org/ns#"
   xmlns:rdf="http://www.w3.org/1999/02/22-rdf-syntax-ns#"
   xmlns:svg="http://www.w3.org/2000/svg"
   xmlns="http://www.w3.org/2000/svg"
   xmlns:sodipodi="http://sodipodi.sourceforge.net/DTD/sodipodi-0.dtd"
   xmlns:inkscape="http://www.inkscape.org/namespaces/inkscape"
   enable-background="new 0 0 512 512"
   height="16"
   id="Layer_1"
   version="1.1"
   viewBox="0 0 16 16"
   width="16"
   xml:space="preserve"
   inkscape:version="0.48.3.1 r9886"
   sodipodi:docname="moderation-log.svg"
   inkscape:export-filename="/home/keito/Desktop/r-cyberpunk-stylesheet/img/moderation-log.png"
   inkscape:export-xdpi="90"
   inkscape:export-ydpi="90"><metadata
     id="metadata13"><rdf:RDF><cc:Work
         rdf:about=""><dc:format>image/svg+xml</dc:format><dc:type
           rdf:resource="http://purl.org/dc/dcmitype/StillImage" /><dc:title></dc:title></cc:Work></rdf:RDF></metadata><defs
     id="defs11" /><sodipodi:namedview
     pagecolor="#ffffff"
     bordercolor="#666666"
     borderopacity="1"
     objecttolerance="10"
     gridtolerance="10"
     guidetolerance="10"
     inkscape:pageopacity="0"
     inkscape:pageshadow="2"
     inkscape:window-width="1920"
     inkscape:window-height="977"
     id="namedview9"
     showgrid="true"
     inkscape:zoom="22.627417"
     inkscape:cx="-0.68802018"
     inkscape:cy="11.550671"
     inkscape:window-x="0"
     inkscape:window-y="24"
     inkscape:window-maximized="1"
     inkscape:current-layer="g3"
     showguides="true"
     inkscape:guide-bbox="true"><sodipodi:guide
       orientation="1,0"
       position="1,11.9375"
       id="guide3851" /><sodipodi:guide
       orientation="0,1"
       position="10.875,15"
       id="guide3853" /><sodipodi:guide
       orientation="1,0"
       position="15,15.8125"
       id="guide3855" /><sodipodi:guide
       orientation="0,1"
       position="10.375,0.9375"
       id="guide3857" /></sodipodi:namedview><g
     id="g3"
     transform="translate(0,-496)"><path
       id="rect6086-7-2"
       style="fill:#00fe00;fill-opacity:1;stroke:none"
       d="m 15,501.13505 -2,2 0,3.5 2,-2 z M 1.84375,511 l 3.5,0 2,-2 -3.5,0 -2,2 z M 15,501.34375 l 0,-3.5 -2,2 0,3.5 2,-2 z m -2,2 0,-3.5 L 3.84375,509 l 3.5,0 L 13,503.34375 z" /><path
       inkscape:connector-curvature="0"
       id="rect6086-7-2-4"
       style="fill:#00fe00;fill-opacity:0.97647059;stroke:none"
       d="m 1,506.86495 2,-2 0,-3.5 -2,2 z M 14.15625,497 l -3.5,0 -2,2 3.5,0 2,-2 z M 1,506.65625 l 0,3.5 2,-2 0,-3.5 -2,2 z m 2,-2 0,3.5 9.15625,-9.15625 -3.5,0 L 3,504.65625 z" /></g></svg>