<?xml version="1.0" encoding="UTF-8" standalone="no"?>
<svg
   xmlns:dc="http://purl.org/dc/elements/1.1/"
   xmlns:cc="http://creativecommons.org/ns#"
   xmlns:rdf="http://www.w3.org/1999/02/22-rdf-syntax-ns#"
   xmlns:svg="http://www.w3.org/2000/svg"
   xmlns="http://www.w3.org/2000/svg"
   xmlns:xlink="http://www.w3.org/1999/xlink"
   xmlns:sodipodi="http://sodipodi.sourceforge.net/DTD/sodipodi-0.dtd"
   xmlns:inkscape="http://www.inkscape.org/namespaces/inkscape"
   enable-background="new 0 0 512 512"
   height="16"
   id="Layer_1"
   version="1.1"
   viewBox="0 0 16 16"
   width="16"
   xml:space="preserve"
   inkscape:version="0.48.3.1 r9886"
   sodipodi:docname="flair.svg"
   inkscape:export-filename="/home/keito/Desktop/r-cyberpunk-stylesheet/img/flair.png"
   inkscape:export-xdpi="90"
   inkscape:export-ydpi="90"><metadata
     id="metadata13"><rdf:RDF><cc:Work
         rdf:about=""><dc:format>image/svg+xml</dc:format><dc:type
           rdf:resource="http://purl.org/dc/dcmitype/StillImage" /><dc:title></dc:title></cc:Work></rdf:RDF></metadata><defs
     id="defs11"><inkscape:path-effect
       effect="spiro"
       id="path-effect6767"
       is_visible="true" /><inkscape:path-effect
       effect="spiro"
       id="path-effect6670"
       is_visible="true" /><linearGradient
       inkscape:collect="always"
       xlink:href="#linearGradient6266-2"
       id="linearGradient6277-9"
       gradientUnits="userSpaceOnUse"
       x1="15.909903"
       y1="12.022524"
       x2="2.4306796"
       y2="11.227029"
       gradientTransform="matrix(-1,0,0,1.1178511,16.09375,494.31326)" /><linearGradient
       inkscape:collect="always"
       id="linearGradient6266-2"><stop
         style="stop-color:#00fe00;stop-opacity:1;"
         offset="0"
         id="stop6268-4" /><stop
         style="stop-color:#00fe00;stop-opacity:0;"
         offset="1"
         id="stop6270-2" /></linearGradient><linearGradient
       inkscape:collect="always"
       xlink:href="#linearGradient6334-1"
       id="linearGradient6345-7"
       gradientUnits="userSpaceOnUse"
       gradientTransform="matrix(-0.9628688,0,0,0.9628688,15.702128,496.47521)"
       x1="-0.3093597"
       y1="8.4097176"
       x2="16.305876"
       y2="8.3179207" /><linearGradient
       inkscape:collect="always"
       id="linearGradient6334-1"><stop
         style="stop-color:#00fe00;stop-opacity:1;"
         offset="0"
         id="stop6336-8" /><stop
         style="stop-color:#00fe00;stop-opacity:0;"
         offset="1"
         id="stop6338-4" /></linearGradient><inkscape:path-effect
       effect="spiro"
       id="path-effect6670-8"
       is_visible="true" /></defs><sodipodi:namedview
     pagecolor="#ffffff"
     bordercolor="#666666"
     borderopacity="1"
     objecttolerance="10"
     gridtolerance="10"
     guidetolerance="10"
     inkscape:pageopacity="0"
     inkscape:pageshadow="2"
     inkscape:window-width="1920"
     inkscape:window-height="977"
     id="namedview9"
     showgrid="true"
     inkscape:zoom="32"
     inkscape:cx="2.2336338"
     inkscape:cy="9.3298349"
     inkscape:window-x="0"
     inkscape:window-y="24"
     inkscape:window-maximized="1"
     inkscape:current-layer="g6886"
     showguides="true"
     inkscape:guide-bbox="true"><sodipodi:guide
       orientation="1,0"
       position="1,11.9375"
       id="guide3851" /><sodipodi:guide
       orientation="0,1"
       position="10.875,15"
       id="guide3853" /><sodipodi:guide
       orientation="1,0"
       position="15,15.8125"
       id="guide3855" /><sodipodi:guide
       orientation="0,1"
       position="10.375,0.9375"
       id="guide3857" /></sodipodi:namedview><g
     id="g3"
     transform="translate(0,-496)"><g
       id="g6890"
       transform="translate(-3.9961662e-8,0.01169752)"><g
         id="g6886"><path
           style="fill:#ff7a00;fill-opacity:1;stroke:#ff7a00;stroke-width:0;stroke-miterlimit:4;stroke-opacity:1;stroke-dasharray:none"
           d="M 8 1.0625 C 4.1340067 1.0625 1 4.1965067 1 8.0625 C 1 11.928493 4.1340067 15.0625 8 15.0625 C 11.865993 15.0625 15 11.928493 15 8.0625 C 15 4.1965067 11.865993 1.0625 8 1.0625 z M 3.75 6.25 C 4.7164983 6.25 5.5 7.0335017 5.5 8 C 5.5 8.9664983 4.7164983 9.75 3.75 9.75 C 2.7835017 9.75 2 8.9664983 2 8 C 2 7.0335017 2.7835017 6.25 3.75 6.25 z M 8 6.25 C 8.9664983 6.25 9.75 7.0335017 9.75 8 C 9.75 8.9664983 8.9664983 9.75 8 9.75 C 7.0335017 9.75 6.25 8.9664983 6.25 8 C 6.25 7.0335017 7.0335017 6.25 8 6.25 z M 12.21875 6.25 C 13.185248 6.25 13.96875 7.0335017 13.96875 8 C 13.96875 8.9664983 13.185248 9.75 12.21875 9.75 C 11.252252 9.75 10.46875 8.9664983 10.46875 8 C 10.46875 7.0335017 11.252252 6.25 12.21875 6.25 z "
           transform="translate(3.9961662e-8,495.9883)"
           id="path3020" /></g></g></g></svg>